# xmcd
#
# Track frame offsets: 
#        150
#        11297
#        22754
#        34591
#        43934
#        54641
#        64632
#        76626
#        90455
#        99636
#        110435
#        119942
#        131408
#        147261
#        158749
#        169360
#        177573
#        189561
#        199677
#        212097
#        222923
#        233564
#
# Disc length: 3286 seconds
#
# Revision: 0
# Processed by: cddbd v1.5.2PL0 Copyright (c) Steve Scherf et al.
# Submitted via: ExactAudioCopy v1.1
#
DISCID=2c0cd416
DTITLE=Faron Young  - Here's Faron Young - Occasional Wife
DYEAR=2009
DGENRE=Country
TTITLE0=I just came to get my Baby
TTITLE1=She went a little bit farther
TTITLE2=I live just to Love you
TTITLE3=Before the next teardrop Falls
TTITLE4=What does it take to make a grown man cry
TTITLE5=So afraid
TTITLE6=Here's to the Girls
TTITLE7=Missing you was all I did today
TTITLE8=If you ever walk my way again
TTITLE9=Glass of Smile
TTITLE10=Stay Love
TTITLE11=If I ever fall in Love with a Honky Tonk Girl
TTITLE12=The Whirlwinds of my Mind
TTITLE13=I really want to know
TTITLE14=First day of Lonliness
TTITLE15=A bunch of Young Ideas
TTITLE16=The guns of Johnny Rondo
TTITLE17=Occasional Wife
TTITLE18=Alabama Rose
TTITLE19=The Weakness of a Fool
TTITLE20=Everybody's got Problems
TTITLE21=You're the Angel
EXTD=
EXTT0=
EXTT1=
EXTT2=
EXTT3=
EXTT4=
EXTT5=
EXTT6=
EXTT7=
EXTT8=
EXTT9=
EXTT10=
EXTT11=
EXTT12=
EXTT13=
EXTT14=
EXTT15=
EXTT16=
EXTT17=
EXTT18=
EXTT19=
EXTT20=
EXTT21=
PLAYORDER=
